<svg width="512" height="512" viewBox="0 0 512 512" fill="none" xmlns="http://www.w3.org/2000/svg">
<g clip-path="url(#clip0_288_5)">
<path d="M59.4 68.4997C41 72.4997 23.8 84.2997 12.7 100.5C7.7 107.7 3 118.6 2.7 123.6L2.5 127.2L129.3 204.7L256 282.2L382.8 204.7L509.5 127.2L509.3 123.6C509 118.6 504.3 107.7 499.3 100.5C488.1 84.0997 470.9 72.3997 452.2 68.4997C442.5 66.3997 68.8 66.3997 59.4 68.4997Z" fill="#9F52BC"/>
<path d="M0.200391 279.1C0.500391 379.3 0.600391 385.8 2.40039 390.9C10.9004 416.3 28.3004 433.7 53.5004 442.2L60.5004 444.5L252.7 444.8C461.2 445.1 451 445.3 465 439.7C474.7 435.7 481.9 431 489.5 423.5C497.3 415.8 502.2 408.8 506.4 399.3C512.1 386.1 512 388.3 511.8 276.2L511.5 173.2L389.5 247.6C267.7 321.9 263.9 324 255.7 324C248.2 324 240.6 319.6 124 248.5C58.3004 208.5 3.50039 175 2.20039 174.2L-0.0996094 172.7L0.200391 279.1Z" fill="#9F52BC"/>
</g>
<defs>
<clipPath id="clip0_288_5">
<rect width="512" height="512" fill="white"/>
</clipPath>
</defs>
</svg>
