<svg width="175" height="137" viewBox="0 0 175 137" fill="none" xmlns="http://www.w3.org/2000/svg">
<path d="M104 4.1C89 6.7 74.1 18.1 67 32.3C64.8 36.6 62.8 42.4 62.4 45.1C62 47.8 61.3 49.9 60.8 49.8C60.3 49.6 57.5 46.6 54.7 43C47.9 34.7 42.2 31.7 32.4 31.2C26.3 30.8 24.3 31.2 19.8 33.2C13.6 36.1 8.8 40.5 5.7 46.4C4 49.7 3.5 52.2 3.5 59C3.5 66.6 3.8 68 6.5 72.7C10.9 80.4 24.9 96.7 36 107.3C47.4 118.1 57.2 125 68.4 129.9C76.3 133.4 76.8 133.5 89 133.5C99.6 133.5 102.3 133.1 107.1 131.2C120 126 134.2 115.2 145.5 102.1C160.7 84.2 168.3 72.6 170.1 64.4C174.7 44.1 153.5 13.2 130 5.9C122.3 3.5 111.5 2.8 104 4.1ZM124.7 22C135.5 27.3 148 44.5 148 54C148 62.5 124 92.4 108.7 102.9C91.8 114.5 78.6 114.4 60.5 102.5C53.1 97.7 30.2 75 23.2 65.5C19.2 60.2 18 57.7 18 54.9C18 48.6 25.1 44.2 31.4 46.6C32.3 46.9 35.4 50.2 38.2 53.9C54.5 74.5 71.3 89 82.1 92C85.9 93.1 90.6 92.1 94.7 89.5L97.1 87.9L89.9 80.1C81.4 70.6 79.6 67.8 77.4 60.4C72.3 42.7 83.9 23.8 102.7 19C109 17.5 117.8 18.7 124.7 22Z" fill="#9F52BC"/>
<path d="M104.5 38.4001C97.5998 41.4001 93.6998 49.6001 95.8998 56.2001C97.1998 60.1001 111.3 74.6001 112.8 73.6001C113.4 73.2001 116.6 69.3001 119.9 64.9001C125.2 58.0001 126 56.3001 126 52.6001C126 49.0001 125.3 47.5001 121.9 43.7001C116.5 37.5001 110.6 35.7001 104.5 38.4001Z" fill="#9F52BC"/>
</svg>
